<svg fill="#000000" xmlns="http://www.w3.org/2000/svg"  viewBox="0 0 50 50" width="50px" height="50px"><path d="M25,8c9.374,0,17,7.626,17,17c0,8.458-6.21,15.491-14.309,16.785V29.237h3.857l0.577-4.253h-4.434	c0,0,0-2.568,0-3.22c0-1.276,0.862-1.93,1.778-1.93c0.916,0,2.812-0.026,2.812-0.026v-4.114c0,0-1.687-0.195-3.41-0.195	c-1.448,0-3.042,0.408-4.319,1.721c-1.298,1.336-1.485,2.925-1.485,5.331c0,0.696,0,2.433,0,2.433h-3.866v4.253h3.866v12.649	C14.6,40.924,8,33.72,8,25C8,15.626,15.626,8,25,8z"/></svg>